<svg width="420" height="104" viewBox="0 0 420 104" fill="none" xmlns="http://www.w3.org/2000/svg">
<path d="M146.165 91.0931C144.492 87.2686 147.4 83.0856 149.751 80.2571C152.779 76.5521 156.523 73.3651 160.627 70.9748C164.411 68.7837 168.594 67.8275 172.937 68.0666C174.849 68.1861 176.881 68.5048 177.757 70.417C178.355 71.7715 178.434 73.3651 178.275 74.8391C177.757 78.6635 175.725 82.2092 173.574 85.3165C172.738 86.5515 171.781 87.7466 170.785 88.902C170.068 89.141 169.351 89.3402 168.634 89.5792C165.288 90.615 162.021 91.7703 158.834 93.1647C157.997 93.4834 157.161 93.8817 156.324 94.2403C156.762 93.085 157.24 91.8898 157.798 90.7345C158.834 88.5434 159.989 86.432 161.224 84.3604C163.774 80.1376 166.841 76.3928 169.75 72.4488C170.228 71.7715 169.232 71.1341 168.674 71.6122C164.73 75.0383 161.623 79.5798 158.954 84.0417C157.559 86.3523 156.324 88.7426 155.209 91.2126C154.611 92.5671 153.934 94.0411 153.695 95.555C152.898 95.9534 152.101 96.3916 151.305 96.8298C149.87 97.6664 148.237 98.6225 147.122 99.8973C146.444 100.654 146.006 101.77 146.723 102.646C147.52 103.682 149.313 103.682 150.508 103.682C154.651 103.562 158.675 101.491 162.021 99.2201C165.846 96.6306 169.311 93.4834 172.299 89.9378C174.849 89.2605 177.399 88.7028 179.908 87.906C180.426 87.7467 180.347 86.9101 179.789 86.9499C177.797 87.1491 175.805 87.5474 173.813 88.0653C176.443 84.6791 178.833 80.8148 179.789 76.6318C180.506 73.4846 180.426 68.8235 177.08 67.1901C174.849 66.0747 172.06 66.1145 169.63 66.3535C167.28 66.5527 164.969 66.9909 162.818 67.9072C157.519 70.1382 152.619 74.2415 149.034 78.7034C146.484 81.8506 142.899 87.3483 145.687 91.3719C145.887 91.6906 146.325 91.4118 146.165 91.0931H146.165ZM164.531 95.0769C161.463 97.6265 157.958 99.977 154.133 101.212C152.579 101.73 150.946 102.049 149.313 101.889C148.476 101.81 147.918 101.889 148.237 101.252C148.874 99.8575 150.827 98.8615 152.062 98.1046C152.54 97.7859 153.057 97.507 153.575 97.1883C153.615 97.5469 153.655 97.8656 153.735 98.1843C153.894 98.8217 154.731 98.742 154.93 98.1843L155.647 96.1127C156.762 95.5549 157.918 95.0371 159.073 94.5192C162.22 93.1647 165.447 91.9695 168.714 90.9736L169.033 90.854C167.598 92.3679 166.124 93.7623 164.531 95.0769V95.0769Z" fill="white"/>
<path d="M188.713 88.3841C187.717 88.8621 185.605 89.141 184.45 89.141C184.689 88.2247 184.649 85.9141 184.131 85.1572C182.936 83.484 178.594 85.1572 179.55 87.8662C179.59 87.9857 179.669 88.145 179.749 88.2646C178.315 88.9418 178.036 92.2484 180.347 92.4874C181.821 92.6866 183.335 91.4914 184.091 90.0174C185.526 90.0573 187.796 89.6589 189.071 88.9816C189.47 88.7426 189.111 88.1849 188.713 88.3841H188.713ZM181.701 86.3921C182.498 86.1531 183.414 86.9499 183.653 87.667C183.773 88.145 183.733 88.6231 183.534 89.0613C183.056 88.9816 182.617 88.902 182.179 88.7426C181.821 88.6231 181.462 88.4637 181.143 88.3044C180.745 86.9499 180.944 86.3125 181.701 86.3921H181.701ZM182.856 90.1369C182.418 90.5751 179.988 92.2484 180.147 89.9776C180.187 89.7784 180.386 89.38 180.586 89.0613C181.303 89.5394 182.219 89.7784 182.936 89.9377H183.016C182.976 90.0174 182.896 90.0572 182.856 90.1369Z" fill="white"/>
<path d="M211.699 90.7345C212.416 90.7345 213.054 90.6548 213.691 90.4556C213.213 90.9337 212.775 91.4118 212.377 91.8898C210.584 93.9216 209.269 96.033 209.07 98.4631C208.791 101.81 211.102 103.881 214.448 103.562C217.755 103.204 220.384 100.296 222.097 97.6663C224.328 94.3199 225.683 90.4158 227.834 86.9897C227.914 86.7905 227.675 86.5913 227.515 86.7507C225.085 89.4198 223.571 92.8061 221.46 95.7143C220.304 97.3078 219.069 98.981 217.396 100.017C216.121 100.774 213.731 101.61 212.337 100.774C210.504 99.6583 212.018 96.0728 212.815 94.798C214.488 92.089 216.679 88.9019 219.308 87.0693C219.428 86.9897 219.468 86.8702 219.468 86.7905C219.587 86.4718 219.269 85.9937 218.87 86.2327C216.799 87.5076 213.97 88.7824 211.54 88.1051C208.751 87.3881 208.273 84.5595 209.07 82.1294C210.464 77.8269 214.05 74.1219 217.755 71.6918C220.663 69.8194 228.949 65.6364 231.22 70.1779C232.535 72.8073 229.388 75.7951 227.675 77.4683C225.683 79.3806 223.412 80.8944 220.982 82.1693C220.862 82.2489 220.982 82.4481 221.101 82.3685C223.571 81.253 225.842 79.8188 227.953 78.1456C229.826 76.6317 231.937 74.839 232.694 72.4886C233.332 70.4967 232.814 68.3852 231.061 67.1502C229.029 65.6364 226.4 65.7957 224.049 66.2738C219.308 67.2299 214.807 69.8194 211.46 73.2853C208.353 76.5122 204.768 81.5318 206.082 86.2726C206.759 88.9019 208.951 90.6946 211.699 90.7345Z" fill="white"/>
<path d="M237.554 88.2247C235.682 88.7028 230.662 92.5671 230.145 91.3719C230.184 90.8142 231.061 89.2605 231.419 88.8223C231.778 88.3442 231.26 87.667 230.702 87.667C230.304 87.667 229.706 87.7068 229.188 87.667C230.941 86.4718 232.575 84.4799 233.371 82.727C234.128 80.9741 233.252 80.0579 231.579 80.7351C229.348 81.6115 227.276 83.4441 226.679 85.8344C226.121 88.2645 227.515 88.9418 229.308 89.141C228.551 90.5353 227.834 93.1248 229.706 93.4435C230.702 93.6427 237.475 89.7385 238.112 88.7824C238.351 88.4239 237.913 87.9458 237.554 88.2247H237.554ZM228.87 84.7588C229.627 83.5238 230.901 82.5677 232.216 82.0099C232.296 81.9701 232.375 81.9303 232.455 81.8904V81.9303C232.256 82.3286 232.216 82.9262 231.977 83.3644L231.379 84.3206C230.543 85.4759 229.547 86.432 228.591 87.4678C227.714 86.9499 228.392 85.5157 228.87 84.7588Z" fill="white"/>
<path d="M239.865 86.4718C240.223 86.5515 240.502 86.432 240.821 86.193C241.02 86.0735 241.18 85.9141 241.299 85.7547C241.618 85.1572 241.458 84.3604 240.861 84.0417C240.343 83.7628 239.626 83.8027 239.188 84.2409L238.949 84.5994C238.71 84.958 238.71 85.5157 238.949 85.9141C239.188 86.2328 239.427 86.432 239.865 86.4718ZM246.996 88.1052C245.562 89.5394 244.088 90.6548 242.136 91.2126C240.98 91.5313 239.307 91.6508 238.949 90.2963C238.749 89.38 239.546 88.7824 239.506 87.8662C239.506 87.4279 239.108 87.1491 238.71 87.2288C237.395 87.4678 236.678 89.141 236.758 90.4158C236.877 91.85 237.993 92.5671 239.347 92.6866C241.1 92.8459 242.773 92.1687 244.287 91.2922C245.482 90.5752 246.956 89.7386 247.394 88.3442C247.474 88.1052 247.155 87.9459 246.996 88.1052H246.996Z" fill="white"/>
<path d="M252.812 88.6231C254.565 88.0653 253.37 85.9141 252.095 85.5953C249.625 84.9978 246.359 87.2287 245.721 89.5792C245.403 90.7743 246 92.0492 247.116 92.5671C248.351 93.085 249.785 92.567 250.98 92.2483C254.406 91.332 257.513 89.8979 260.103 87.4279C260.262 87.2685 260.063 86.9897 259.864 87.1092C257.394 88.9418 254.565 90.4556 251.498 91.0133C249.785 91.332 246.319 91.0532 248.43 88.8222C249.227 88.0255 250.701 87.3482 251.657 87.149C252.374 86.7905 252.733 87.2287 252.733 88.384C252.573 88.4239 252.693 88.6629 252.812 88.6231Z" fill="white"/>
<path d="M274.883 88.1052C273.409 89.3402 270.779 90.2565 269.066 91.1329C267.035 92.1289 264.804 92.0492 262.971 90.9337C265.76 89.8979 270.301 86.8702 267.871 85.436C266.477 84.5994 264.007 87.2686 263.091 88.0653C262.453 88.6629 261.816 89.2605 261.218 89.8581C261.139 89.8979 261.099 89.8979 261.059 89.9377L261.178 89.6987C262.055 89.1012 262.732 88.2247 263.449 87.4678C264.804 85.9539 266.078 84.3604 267.313 82.7669C269.823 79.5001 272.214 76.1537 274.444 72.6878C274.763 72.1699 275.6 71.2138 275.082 70.5764C274.444 69.7398 272.652 70.7756 272.054 71.2138C270.421 72.2097 269.186 73.7634 267.951 75.1976C266.278 77.1497 264.764 79.2611 263.369 81.4124C261.856 83.8026 260.421 86.2726 259.147 88.7824C258.27 90.4955 257.394 92.2882 256.955 94.1606C256.637 95.4752 258.509 95.9533 258.947 94.7183C259.306 93.6825 259.704 92.6866 260.182 91.7305C260.382 91.4914 260.621 91.2524 260.86 91.0134V91.0532C261.816 92.0093 262.812 92.9654 264.206 93.1248C267.672 93.563 272.851 90.4955 275.241 88.4637C275.48 88.2646 275.162 87.906 274.883 88.1052ZM263.569 85.3564C265.68 81.5717 267.951 77.6676 270.819 74.4009C271.337 73.8431 271.895 73.2455 272.492 72.7276C272.851 72.4089 273.289 72.1699 273.688 71.9309C273.568 72.2097 273.488 72.5284 273.409 72.648C271.656 75.7952 269.385 78.7034 267.274 81.5717C265.919 83.3246 264.604 85.1173 263.17 86.8304C262.732 87.3483 262.294 87.9458 261.816 88.5036C262.374 87.4279 262.971 86.3921 263.569 85.3564ZM265.68 87.1491C266.078 86.8702 267.353 86.1133 266.955 87.1889C266.796 87.6271 265.879 88.1052 265.481 88.3442C264.565 88.9418 263.25 89.8182 262.055 89.8979C263.25 88.8621 264.485 87.9459 265.68 87.1491Z" fill="white"/>
<path d="M11.238 11.787H0V0.318054H40.8724V11.787H29.6344V54.5066H11.238V11.787Z" fill="white"/>
<path d="M48.3386 0.318054H86.363V12.2488H67.4278V22.1013H84.7466V32.0307H67.4278V42.6529H86.363V54.5066H48.3386V0.318054Z" fill="white"/>
<path d="M95.2148 0.318054H110.994L132.623 29.4906V0.318054H146.709V54.5066H130.93L109.224 26.2578V54.5066H95.2148V0.318054Z" fill="white"/>
<path d="M157.024 0.318054H180.577C184.965 0.318054 188.942 0.978735 192.508 2.30009C196.074 3.62145 199.121 5.46239 201.648 7.82288C204.176 10.1834 206.132 12.9993 207.518 16.2706C208.903 19.5419 209.596 23.1276 209.596 27.0275C209.596 31.1327 208.909 34.8723 207.537 38.2462C206.164 41.6202 204.208 44.5131 201.668 46.9249C199.128 49.3367 196.074 51.2032 192.508 52.5246C188.942 53.846 184.965 54.5066 180.577 54.5066H157.024V0.318054ZM180.577 40.3437C182.553 40.3437 184.253 39.9204 185.677 39.0737C187.101 38.227 188.274 37.1494 189.198 35.8408C190.122 34.5323 190.802 33.0827 191.238 31.4919C191.674 29.9011 191.892 28.3617 191.892 26.8736C191.892 25.0775 191.616 23.4226 191.065 21.9088C190.513 20.395 189.737 19.0865 188.736 17.9832C187.736 16.88 186.543 16.0204 185.157 15.4047C183.772 14.7889 182.245 14.481 180.577 14.481H174.419V40.3437H180.577Z" fill="white"/>
<path d="M217.255 0.318054H235.42V54.5066H217.255V0.318054Z" fill="white"/>
<path d="M245.734 0.318054H261.514L283.143 29.4906V0.318054H297.229V54.5066H281.45L259.743 26.2578V54.5066H245.734V0.318054Z" fill="white"/>
<path d="M307.543 0.318054H325.247V21.8703H342.027V0.318054H359.808V54.5066H342.027V33.2623H325.247V54.5066H307.543V0.318054Z" fill="white"/>
<path d="M380.359 0.318054H404.298L420 54.5066H401.45L399.371 44.1154H385.362L383.13 54.5066H365.35L380.359 0.318054ZM397.524 34.4168L392.367 10.7093L387.056 34.4168H397.524Z" fill="white"/>
</svg>
